<?xml version="1.0" encoding="utf-8"?>
<!-- Generator: Adobe Illustrator 15.1.0, SVG Export Plug-In . SVG Version: 6.00 Build 0)  -->
<!DOCTYPE svg PUBLIC "-//W3C//DTD SVG 1.1//EN" "http://www.w3.org/Graphics/SVG/1.1/DTD/svg11.dtd">
<svg version="1.1" id="Layer_1" xmlns="http://www.w3.org/2000/svg" xmlns:xlink="http://www.w3.org/1999/xlink" x="0px" y="0px"
	 width="204.078px" height="220.636px" viewBox="0 0 204.078 220.636" enable-background="new 0 0 204.078 220.636"
	 xml:space="preserve">
<g>
	<path fill="#F6F6F6" d="M34.104,15.749c3.594-3.943,10.288-5.967,17.461-4.744c7.143,1.221,12.767,5.32,14.869,10.205
		c4.449-2.44,10.96-2.559,17.184,0.168c5.27,2.308,9.174,6.152,10.995,10.264l5.662-15.231c0,0-50.326-30.226-86.987-8.637
		c1.287-0.209,2.617-0.33,3.989-0.33C24.922,7.444,31.449,10.888,34.104,15.749"/>
	<path fill="#C7C6C6" d="M0,18.794c0,0,47.373-9.113,91.964,19.973l2.649-7.125c-1.821-4.112-5.724-7.955-10.995-10.264
		c-6.223-2.727-12.734-2.607-17.183-0.168c-2.103-4.885-7.727-8.984-14.87-10.205c-7.172-1.223-13.867,0.801-17.461,4.744
		c-2.655-4.861-9.181-8.305-16.827-8.305c-1.372,0-2.702,0.121-3.989,0.33C8.59,10.542,4.115,14.151,0,18.794"/>
	<path fill="#946138" d="M25.985,220.384c-0.481,0-0.972-0.086-1.449-0.262c-2.156-0.803-3.253-3.199-2.452-5.354L96.374,14.962
		c0.801-2.156,3.196-3.256,5.353-2.453c2.155,0.801,3.252,3.199,2.451,5.354L29.888,217.669
		C29.264,219.345,27.675,220.384,25.985,220.384"/>
	<path fill="#1E3136" d="M123.534,138.454c-6.437,0-11.656-5.219-11.656-11.658v-2.527c-13.345-1.914-24.286-7.793-26.541-24.68
		c-0.553-4.143-0.592-9.024-0.007-14.799c0.11-1.063,0.264-2.107,0.439-3.147c3.373-19.722,19.148-34.607,40.771-34.607
		c0.103,0,0.203,0.004,0.305,0.004V35.714c-0.023,0.004-0.038,0.006-0.038,0.006c-27.887,0-48.235,19.199-52.584,44.636
		c-0.227,1.34-0.425,2.692-0.565,4.061c-0.755,7.447-0.706,13.744,0.006,19.086c2.225,16.658,11.004,25.01,22.709,29.123
		c-5.54,4.508-9.844,10.182-12.155,16.57c-1.396,0.178-2.833,0.244-4.3,0.145c-6.384-0.438-12.124-3.756-17.551-10.154
		c-2.975-3.502-8.228-3.938-11.737-0.961c-3.506,2.975-3.937,8.229-0.961,11.736c8.37,9.865,18.167,15.246,29.115,15.992
		c0.856,0.059,1.704,0.086,2.543,0.086c0.546,0,1.087-0.014,1.623-0.035c2.967,15.379,18.094,54.146,18.094,54.146l25.801,0.24
		v-81.938H123.534z"/>
	<path fill="#C7C6C6" d="M85.77,81.644c-0.176,1.039-0.329,2.084-0.439,3.146c-0.585,5.776-0.546,10.657,0.006,14.799
		c2.254,16.887,13.196,22.766,26.541,24.68v2.527c0,6.439,5.221,11.658,11.657,11.658h3.31V47.04c-0.102,0-0.201-0.003-0.304-0.003
		C104.917,47.037,89.143,61.92,85.77,81.644"/>
	<path fill="#38454A" d="M170.975,164.751c1.979-12.521-3.791-23.926-13.305-31.838c12.153-4.012,21.229-12.459,22.868-30.086
		c0.483-5.203,0.344-11.267-0.58-18.41c11.539-3.775,10.718,9.666,19.46,9.162c8.744-0.504,2.498-16.568,2.498-16.568
		c-19.693-49.649-73.518-41.541-75.072-41.297V47.04c21.307,0.109,35.952,11.506,40.238,33.65c0.257,1.331,0.484,2.694,0.666,4.102
		c0.716,5.537,0.824,10.238,0.45,14.271c-1.655,17.768-13.046,23.514-26.763,25.299v2.434c0,6.439-5.217,11.658-11.656,11.658
		h-2.936v81.938l26.022,0.244C152.867,220.636,168.684,179.257,170.975,164.751"/>
	<path fill="#F6EADE" d="M129.78,138.454c6.439,0,11.656-5.219,11.656-11.658v-2.434c13.717-1.785,25.108-7.531,26.762-25.299
		c0.375-4.033,0.268-8.734-0.448-14.271c-0.183-1.408-0.409-2.772-0.666-4.102c-4.286-22.144-18.933-33.541-40.24-33.65v91.414
		H129.78z"/>
	<path fill="#C7C6C6" d="M41.533,141.759c-2.245,6.781,0.479,13.783,6.079,15.637c5.605,1.855,11.966-2.143,14.209-8.924
		c2.246-6.785-0.478-13.785-6.081-15.641C50.137,130.978,43.776,134.976,41.533,141.759"/>
	<path fill="#1E3136" d="M98.669,100.839c-4.599,0-8.326-3.729-8.326-8.326c0-4.6,3.727-8.328,8.326-8.328
		c0.959,0,9.401-0.233,10.482-8.283c0.613-4.557,4.801-7.756,9.359-7.145c4.559,0.613,7.759,4.805,7.145,9.361
		C124.602,85.978,117.602,100.839,98.669,100.839"/>
	<path fill="#1E3136" d="M155.706,100.839c-18.934,0-25.934-14.861-26.986-22.721c-0.614-4.556,2.586-8.748,7.144-9.361
		c4.544-0.606,8.688,2.543,9.347,7.047c0.422,2.535,2.291,8.381,10.496,8.381c4.6,0,8.326,3.728,8.326,8.328
		C164.032,97.11,160.305,100.839,155.706,100.839"/>
</g>
</svg>
